<svg width="28" height="28" viewBox="0 0 28 28" fill="none" xmlns="http://www.w3.org/2000/svg">
  <g clip-path="url(#clip0_16_269)">
    <path
      d="M4.66667 17.5C4.95242 17.5 5.22823 17.6049 5.44177 17.7948C5.65531 17.9847 5.79173 18.2464 5.82517 18.5302L5.83333 18.6667V22.1667H10.5C10.7974 22.167 11.0834 22.2809 11.2996 22.485C11.5158 22.6891 11.6459 22.9681 11.6634 23.265C11.6808 23.5618 11.5842 23.8541 11.3934 24.0821C11.2025 24.3102 10.9318 24.4567 10.6365 24.4918L10.5 24.5H5.83333C5.24466 24.5002 4.67767 24.2779 4.24603 23.8776C3.81438 23.4773 3.54998 22.9287 3.50583 22.3417L3.5 22.1667V18.6667C3.5 18.3572 3.62292 18.0605 3.84171 17.8417C4.0605 17.6229 4.35725 17.5 4.66667 17.5ZM23.3333 17.5C23.6428 17.5 23.9395 17.6229 24.1583 17.8417C24.3771 18.0605 24.5 18.3572 24.5 18.6667V22.1667C24.5 22.7855 24.2542 23.379 23.8166 23.8166C23.379 24.2542 22.7855 24.5 22.1667 24.5H17.5C17.1906 24.5 16.8938 24.3771 16.675 24.1583C16.4563 23.9395 16.3333 23.6428 16.3333 23.3333C16.3333 23.0239 16.4563 22.7272 16.675 22.5084C16.8938 22.2896 17.1906 22.1667 17.5 22.1667H22.1667V18.6667C22.1667 18.3572 22.2896 18.0605 22.5084 17.8417C22.7272 17.6229 23.0239 17.5 23.3333 17.5ZM10.5 3.5C10.8094 3.5 11.1062 3.62292 11.325 3.84171C11.5437 4.0605 11.6667 4.35725 11.6667 4.66667C11.6667 4.97609 11.5437 5.27283 11.325 5.49162C11.1062 5.71042 10.8094 5.83333 10.5 5.83333H5.83333V9.33333C5.83333 9.64275 5.71042 9.9395 5.49162 10.1583C5.27283 10.3771 4.97609 10.5 4.66667 10.5C4.35725 10.5 4.0605 10.3771 3.84171 10.1583C3.62292 9.9395 3.5 9.64275 3.5 9.33333V5.83333C3.5 5.21449 3.74583 4.621 4.18342 4.18342C4.621 3.74583 5.21449 3.5 5.83333 3.5H10.5ZM22.1667 3.5C22.7855 3.5 23.379 3.74583 23.8166 4.18342C24.2542 4.621 24.5 5.21449 24.5 5.83333V9.33333C24.5 9.64275 24.3771 9.9395 24.1583 10.1583C23.9395 10.3771 23.6428 10.5 23.3333 10.5C23.0239 10.5 22.7272 10.3771 22.5084 10.1583C22.2896 9.9395 22.1667 9.64275 22.1667 9.33333V5.83333H17.5C17.1906 5.83333 16.8938 5.71042 16.675 5.49162C16.4563 5.27283 16.3333 4.97609 16.3333 4.66667C16.3333 4.35725 16.4563 4.0605 16.675 3.84171C16.8938 3.62292 17.1906 3.5 17.5 3.5H22.1667Z"
      fill="#999999" />
    <rect opacity="0.5" x="4" y="13" width="20" height="2" rx="1" fill="#999999" />
  </g>
  <defs>
    <clipPath id="clip0_16_269">
      <rect width="28" height="28" fill="white" />
    </clipPath>
  </defs>
</svg>