<svg width="20" height="20" viewBox="0 0 20 20" fill="none" xmlns="http://www.w3.org/2000/svg">
  <path opacity="0.4"
    d="M9.17501 16.6832C13.3217 16.6832 16.6833 13.3216 16.6833 9.17484C16.6833 5.0281 13.3217 1.6665 9.17501 1.6665C5.02827 1.6665 1.66667 5.0281 1.66667 9.17484C1.66667 13.3216 5.02827 16.6832 9.17501 16.6832Z"
    fill="#999999" />
  <path
    d="M18.325 15.7917C18.05 15.2833 17.4667 15 16.6834 15C16.0917 15 15.5834 15.2417 15.2834 15.6583C14.9834 16.075 14.9167 16.6333 15.1 17.1917C15.4584 18.275 16.0834 18.5167 16.425 18.5583C16.475 18.5667 16.525 18.5667 16.5834 18.5667C16.95 18.5667 17.5167 18.4083 18.0667 17.5833C18.5084 16.9417 18.5917 16.3 18.325 15.7917Z"
    fill="#999999" />
</svg>